<svg width="512" height="512" viewBox="0 0 512 512" fill="none" xmlns="http://www.w3.org/2000/svg">
<g clip-path="url(#clip0_303_157)">
<mask id="mask0_303_157" style="mask-type:luminance" maskUnits="userSpaceOnUse" x="0" y="0" width="512" height="512">
<path d="M512 0H0V512H512V0Z" fill="white"/>
</mask>
<g mask="url(#mask0_303_157)">
<path d="M512 0.000915527H0.000427246V512.002H512V0.000915527Z" fill="#002855"/>
<path d="M338.875 338.706C316.094 338.706 301.75 345.794 289.094 352.206C278.125 357.775 269.181 362.331 254.5 362.331C239.313 362.331 230.875 358.113 219.906 352.206C207.25 345.794 193.412 338.706 170.125 338.706C146.838 338.706 133 345.794 120.344 352.206C109.375 357.775 100.6 362.331 85.75 362.331V395.238C108.531 395.238 122.875 388.15 135.531 381.738C146.5 376.169 155.275 371.613 170.125 371.613C184.975 371.613 193.75 375.831 204.719 381.738C217.375 388.15 231.213 395.238 254.5 395.238C277.787 395.238 291.625 388.15 304.281 381.738C315.25 376.169 324.194 371.613 338.875 371.613C354.062 371.613 362.5 375.831 373.469 381.738C386.125 388.15 400.131 395.238 423.25 395.238V362.331C408.063 362.331 399.625 358.113 388.656 352.206C376 345.794 361.656 338.706 338.875 338.706ZM338.875 263.613C316.094 263.613 301.75 270.869 289.094 277.113C278.125 282.513 269.181 287.238 254.5 287.238C239.313 287.238 230.875 283.019 219.906 277.113C207.25 270.7 193.412 263.613 170.125 263.613C146.838 263.613 133 270.869 120.344 277.113C109.375 282.513 100.6 287.238 85.75 287.238V320.144C108.531 320.144 122.875 312.888 135.531 306.644C146.5 300.738 154.938 296.519 170.125 296.519C185.312 296.519 193.75 300.738 204.719 306.644C217.375 313.056 231.213 320.144 254.5 320.144C277.787 320.144 291.625 312.888 304.281 306.644C315.25 300.738 323.688 296.519 338.875 296.519C354.062 296.519 362.5 300.738 373.469 306.644C386.125 313.056 400.131 320.144 423.25 320.144V287.238C408.063 287.238 399.625 283.019 388.656 277.113C376 270.7 361.656 263.613 338.875 263.613ZM254.5 212.144C269.687 212.144 278.125 207.925 289.094 202.019C301.75 195.775 316.094 188.519 338.875 188.519C361.656 188.519 376 195.606 388.656 202.019C399.625 207.925 408.063 212.144 423.25 212.144V245.05C400.131 245.05 386.125 237.963 373.469 231.55C362.5 225.644 354.062 221.425 338.875 221.425C324.194 221.425 315.25 226.15 304.281 231.55C291.625 237.794 277.787 245.05 254.5 245.05V212.144ZM254.5 137.388C269.181 137.388 278.125 132.663 289.094 127.263C301.75 120.85 315.756 113.763 338.875 113.763C361.994 113.763 376 120.85 388.656 127.263C399.625 132.831 408.063 137.05 423.25 137.05V169.956C400.131 169.956 386.125 162.869 373.469 156.456C362.5 150.55 354.062 146.331 338.875 146.331C324.194 146.331 315.25 151.056 304.281 156.456C291.625 162.7 277.787 169.956 254.5 169.956V137.388Z" fill="white"/>
<path d="M147.733 225.095C135.916 225.095 125.141 222.228 115.41 216.493C105.765 210.671 98.075 202.938 92.3402 193.293C86.6054 183.562 83.738 172.787 83.738 160.97C83.738 149.24 86.6054 138.552 92.3402 128.907C98.075 119.176 105.765 111.442 115.41 105.708C125.141 99.8859 135.916 96.975 147.733 96.975C159.55 96.975 170.281 99.8859 179.926 105.708C189.658 111.442 197.391 119.176 203.126 128.907C208.861 138.552 211.728 149.24 211.728 160.97C211.728 172.787 208.861 183.562 203.126 193.293C197.391 202.938 189.658 210.671 179.926 216.493C170.281 222.228 159.55 225.095 147.733 225.095ZM147.733 188.08C152.773 188.08 157.334 186.863 161.418 184.43C165.502 181.998 168.717 178.739 171.063 174.655C173.496 170.571 174.713 166.01 174.713 160.97C174.713 156.017 173.496 151.499 171.063 147.415C168.717 143.331 165.502 140.073 161.418 137.64C157.334 135.207 152.773 133.99 147.733 133.99C142.78 133.99 138.262 135.207 134.178 137.64C130.094 140.073 126.836 143.331 124.403 147.415C121.97 151.499 120.753 156.017 120.753 160.97C120.753 166.01 121.97 170.571 124.403 174.655C126.836 178.739 130.094 181.998 134.178 184.43C138.262 186.863 142.78 188.08 147.733 188.08Z" fill="white"/>
</g>
</g>
<defs>
<clipPath id="clip0_303_157">
<rect width="512" height="512" fill="white"/>
</clipPath>
</defs>
</svg>
