<?xml version="1.0" encoding="UTF-8" standalone="no"?>
<!DOCTYPE svg PUBLIC "-//W3C//DTD SVG 1.1//EN" "http://www.w3.org/Graphics/SVG/1.1/DTD/svg11.dtd">
<svg width="100%" height="100%" viewBox="0 0 512 512" version="1.1" xmlns="http://www.w3.org/2000/svg" xmlns:xlink="http://www.w3.org/1999/xlink" xml:space="preserve" xmlns:serif="http://www.serif.com/" style="fill-rule:evenodd;clip-rule:evenodd;stroke-linejoin:round;stroke-miterlimit:2;">
    <rect id="ArtBoard1" x="0" y="0" width="512" height="512" style="fill:none;"/>
    <clipPath id="_clip1">
        <rect id="ArtBoard11" serif:id="ArtBoard1" x="0" y="0" width="512" height="512"/>
    </clipPath>
    <g clip-path="url(#_clip1)">
        <g transform="matrix(1.95542,0,0,1.38237,-67.0431,-101.454)">
            <rect x="34.286" y="73.392" width="261.836" height="370.379" style="fill:rgb(33,58,78);"/>
        </g>
        <g id="waves-24px" transform="matrix(16.875,0,0,16.875,254.5,254.5)">
            <g transform="matrix(1,0,0,1,-12,-12)">
                <path d="M17,16.99C15.65,16.99 14.8,17.41 14.05,17.79C13.4,18.12 12.87,18.39 12,18.39C11.1,18.39 10.6,18.14 9.95,17.79C9.2,17.41 8.38,16.99 7,16.99C5.62,16.99 4.8,17.41 4.05,17.79C3.4,18.12 2.88,18.39 2,18.39L2,20.34C3.35,20.34 4.2,19.92 4.95,19.54C5.6,19.21 6.12,18.94 7,18.94C7.88,18.94 8.4,19.19 9.05,19.54C9.8,19.92 10.62,20.34 12,20.34C13.38,20.34 14.2,19.92 14.95,19.54C15.6,19.21 16.13,18.94 17,18.94C17.9,18.94 18.4,19.19 19.05,19.54C19.8,19.92 20.63,20.34 22,20.34L22,18.39C21.1,18.39 20.6,18.14 19.95,17.79C19.2,17.41 18.35,16.99 17,16.99ZM17,12.54C15.65,12.54 14.8,12.97 14.05,13.34C13.4,13.66 12.87,13.94 12,13.94C11.1,13.94 10.6,13.69 9.95,13.34C9.2,12.96 8.38,12.54 7,12.54C5.62,12.54 4.8,12.97 4.05,13.34C3.4,13.66 2.88,13.94 2,13.94L2,15.89C3.35,15.89 4.2,15.46 4.95,15.09C5.6,14.74 6.1,14.49 7,14.49C7.9,14.49 8.4,14.74 9.05,15.09C9.8,15.47 10.62,15.89 12,15.89C13.38,15.89 14.2,15.46 14.95,15.09C15.6,14.74 16.1,14.49 17,14.49C17.9,14.49 18.4,14.74 19.05,15.09C19.8,15.47 20.63,15.89 22,15.89L22,13.94C21.1,13.94 20.6,13.69 19.95,13.34C19.2,12.96 18.35,12.54 17,12.54ZM12,9.49C12.9,9.49 13.4,9.24 14.05,8.89C14.8,8.52 15.65,8.09 17,8.09C18.35,8.09 19.2,8.51 19.95,8.89C20.6,9.24 21.1,9.49 22,9.49L22,11.44C20.63,11.44 19.8,11.02 19.05,10.64C18.4,10.29 17.9,10.04 17,10.04C16.13,10.04 15.6,10.32 14.95,10.64C14.2,11.01 13.38,11.44 12,11.44L12,9.49ZM12,5.06C12.87,5.06 13.4,4.78 14.05,4.46C14.8,4.08 15.63,3.66 17,3.66C18.37,3.66 19.2,4.08 19.95,4.46C20.6,4.79 21.1,5.04 22,5.04L22,6.99C20.63,6.99 19.8,6.57 19.05,6.19C18.4,5.84 17.9,5.59 17,5.59C16.13,5.59 15.6,5.87 14.95,6.19C14.2,6.56 13.38,6.99 12,6.99L12,5.06Z" style="fill:white;fill-rule:nonzero;"/>
            </g>
        </g>
        <g transform="matrix(1.83513,0,0,1.83513,-240.78,251.383)">
            <text x="165.757px" y="68.862px" style="font-family:'Roboto-Black', 'Roboto';font-weight:900;font-size:200px;fill:white;">°</text>
        </g>
    </g>
</svg>
